<svg xmlns="http://www.w3.org/2000/svg" xmlns:xlink="http://www.w3.org/1999/xlink" width="1392" height="472" viewBox="0 0 1392 472">
  <defs>
    <linearGradient id="linear-gradient" x1="0.825" y1="0.105" x2="0.21" y2="0.846" gradientUnits="objectBoundingBox">
      <stop offset="0" stop-color="#03d1cf" stop-opacity="0.988"/>
      <stop offset="1" stop-color="#4e09f8"/>
    </linearGradient>
    <clipPath id="clip-GLP_COLORED_DARK">
      <rect width="1392" height="472"/>
    </clipPath>
  </defs>
  <g id="GLP_COLORED_DARK" data-name="GLP COLORED DARK" clip-path="url(#clip-GLP_COLORED_DARK)">
    <g id="GLP_LOGO" data-name="GLP LOGO" transform="translate(-0.167 -60.745)">
      <rect id="BASE" width="1392" height="472" transform="translate(0.167 60.745)" fill="rgba(255,255,255,0)"/>
      <g id="Groupe_1152" data-name="Groupe 1152" transform="translate(32.167 92.145)">
        <path id="Union_14" data-name="Union 14" d="M22.3,297.373,19.116,291.3H72.694L74,293.172a158.27,158.27,0,0,0,156.741,66.7c80.366-13.68,137.183-86.907,130.781-167.969l-95.707-.171,27.919,79.018-34.17,47L198.2,143.765l201.908.341.778,3.01a181.225,181.225,0,0,1,5.473,23.442,197.28,197.28,0,0,1,2.837,34.174c0,97.864-70.625,184.771-170.424,201.63A228.085,228.085,0,0,1,204.1,409.2,203.355,203.355,0,0,1,22.3,297.373Zm34.346-32.7H8.8l-.854-3.008a185.637,185.637,0,0,1-5.046-23.1C-15.958,127.416,59.211,21.663,170.409,2.929A203.846,203.846,0,0,1,386.753,111.238l3.189,6.075h-53.9l-1.381-1.874a157.84,157.84,0,0,0-156.49-66.528C97.8,62.59,40.808,135.818,47.21,216.71l96.058.169-27.994-79.018,34.4-47,61.21,173.987Z" transform="translate(0 0)" fill="url(#linear-gradient)"/>
      </g>
      <path id="Path_1594" data-name="Path 1594" d="M153.319,148.17c-3.211,0-4.587,1.376-4.587,4.587v27.52c0,3.211,1.376,4.587,4.587,4.587h91.276v48.161c-17.888,29.355-50,46.326-92.652,46.326C83.6,279.35,41.4,235.317,41.4,150.922,41.4,66.985,90.94,22.494,147.356,22.494c44.032,0,79.809,17.43,91.276,59.627.917,3.211,2.752,4.587,5.5,4.587h29.355c3.211,0,5.045-1.376,5.045-4.587C266.152,17.907,211.112-14.2,147.356-14.2,75.8-14.2,1.04,40.841,1.04,150.922c0,108.705,70.635,165.122,152.738,165.122,50,0,95.4-20.64,124.759-66.049,3.211-4.587,4.587-10.549,4.587-17.43V152.756c0-3.211-1.376-4.587-4.587-4.587Zm187.138,158.7c0,3.211,1.376,4.587,4.587,4.587h198.6c3.211,0,4.587-1.376,4.587-4.587V279.35c0-3.211-1.376-4.587-4.587-4.587H378.985V-5.027c0-3.211-1.376-4.587-4.587-4.587H345.044c-3.211,0-4.587,1.376-4.587,4.587Zm259.149,0c0,3.211,1.376,4.587,4.587,4.587h29.355c3.211,0,4.587-1.376,4.587-4.587v-137.6h77.057c69.259,0,104.577-32.566,104.577-89.441S784.451-9.613,715.192-9.613h-111c-3.211,0-4.587,1.376-4.587,4.587ZM638.135,27.08h83.02c39.9,0,58.251,16.053,58.251,52.747s-18.347,52.747-58.251,52.747h-83.02Z" transform="translate(542.353 140.554)"/>
    </g>
  </g>
</svg>
