<svg width="64" height="64" viewBox="0 0 64 64" fill="none" xmlns="http://www.w3.org/2000/svg">
<path fill-rule="evenodd" clip-rule="evenodd" d="M32 64C49.6731 64 64 49.6731 64 32C64 24.756 61.593 18.0742 57.5351 12.7107L56.0615 13.7281V13.728L56.0457 13.739L49.6239 18.1724C49.6298 18.1799 49.6357 18.1874 49.6416 18.1949L34.4001 28.7999V41.5999L54.1261 28.4866C54.3064 29.6312 54.4 30.8047 54.4 32C54.4 44.3712 44.3712 54.4 32 54.4C19.6288 54.4 9.6 44.3712 9.6 32C9.6 30.5085 9.74577 29.051 10.0239 27.6411L29.6 41.5999V28.7999L14.5823 17.9139C14.5939 17.8996 14.6054 17.8854 14.617 17.8711L8.29681 13.3577L8.28325 13.3479V13.348L6.79342 12.2841C2.53726 17.7179 0 24.5626 0 32C0 49.6731 14.3269 64 32 64ZM32 9.6C26.7514 9.6 21.9245 11.4051 18.1061 14.4284L10.0738 8.69234C15.801 3.30253 23.5148 0 32 0C40.6905 0 48.5719 3.46429 54.3385 9.08724L46.2202 14.6918C42.3523 11.5103 37.3992 9.6 32 9.6Z" fill="#0DB7D2"/>
<path fill-rule="evenodd" clip-rule="evenodd" d="M32 64C49.6731 64 64 49.6731 64 32C64 24.756 61.593 18.0742 57.5351 12.7107L56.0615 13.7281V13.728L56.0457 13.739L49.6239 18.1724C49.6298 18.1799 49.6357 18.1874 49.6416 18.1949L34.4001 28.7999V41.5999L54.1261 28.4866C54.3064 29.6312 54.4 30.8047 54.4 32C54.4 44.3712 44.3712 54.4 32 54.4C19.6288 54.4 9.6 44.3712 9.6 32C9.6 30.5085 9.74577 29.051 10.0239 27.6411L29.6 41.5999V28.7999L14.5823 17.9139C14.5939 17.8996 14.6054 17.8854 14.617 17.8711L8.29681 13.3577L8.28325 13.3479V13.348L6.79342 12.2841C2.53726 17.7179 0 24.5626 0 32C0 49.6731 14.3269 64 32 64ZM32 9.6C26.7514 9.6 21.9245 11.4051 18.1061 14.4284L10.0738 8.69234C15.801 3.30253 23.5148 0 32 0C40.6905 0 48.5719 3.46429 54.3385 9.08724L46.2202 14.6918C42.3523 11.5103 37.3992 9.6 32 9.6Z" fill="url(#paint0_linear_159_1619)"/>
<defs>
<linearGradient id="paint0_linear_159_1619" x1="64.6489" y1="32.5043" x2="0.480813" y2="30.3349" gradientUnits="userSpaceOnUse">
<stop stop-color="#03D1CF" stop-opacity="0.988"/>
<stop offset="1" stop-color="#4E09F8"/>
</linearGradient>
</defs>
</svg>
