<svg xmlns="http://www.w3.org/2000/svg" xmlns:xlink="http://www.w3.org/1999/xlink" width="1640" height="472" viewBox="0 0 1640 472">
  <defs>
    <clipPath id="clip-GMX_DARK">
      <rect width="1640" height="472"/>
    </clipPath>
  </defs>
  <g id="GMX_DARK" data-name="GMX DARK" clip-path="url(#clip-GMX_DARK)">
    <g id="LOGO_GMX" data-name="LOGO GMX" transform="translate(1.317 -16.974)">
      <rect id="BASE" width="1640" height="472" transform="translate(-1.317 16.974)" fill="rgba(255,255,255,0)"/>
      <path id="Path_1591" data-name="Path 1591" d="M1070.463,1104.6,798.486,696,525.667,1104.6H905.756L798.486,948.649l-53.212,81.022H688.683l109.8-162.915L957.28,1104.6Z" transform="translate(-494.667 -647.027)" fill="rgba(0,0,0,0.99)"/>
      <path id="Path_1592" data-name="Path 1592" d="M151.659,143.338c-3.171,0-4.53,1.359-4.53,4.53v27.183c0,3.171,1.359,4.53,4.53,4.53h90.156v47.57c-17.669,28.995-49.382,45.758-91.515,45.758-67.5,0-109.184-43.492-109.184-126.853C41.116,63.149,90.045,19.2,145.77,19.2c43.492,0,78.83,17.216,90.156,58.9.906,3.171,2.718,4.53,5.437,4.53h29c3.171,0,4.983-1.359,4.983-4.53-12.232-63.426-66.6-95.14-129.571-95.14-70.675,0-144.522,54.366-144.522,163.1,0,107.372,69.769,163.1,150.864,163.1,49.382,0,94.234-20.387,123.229-65.239,3.171-4.53,4.53-10.42,4.53-17.216v-78.83c0-3.171-1.359-4.53-4.53-4.53ZM621.922-7.979c0-3.171-1.359-4.53-4.531-4.53H574.352c-3.624,0-5.89,1.359-7.249,4.53L479.212,193.627,391.321-7.979c-1.359-3.171-3.624-4.53-7.249-4.53H341.033c-3.171,0-4.53,1.359-4.53,4.53V300.092c0,3.171,1.359,4.53,4.53,4.53h28.995c3.171,0,4.53-1.359,4.53-4.53V46.84l88.8,200.7c1.359,2.718,3.171,4.077,5.89,4.077h19.934c2.718,0,4.53-1.359,5.89-4.077l88.8-200.7V300.092c0,3.171,1.359,4.53,4.53,4.53h28.995c3.171,0,4.531-1.359,4.531-4.53Zm98.764,0c-3.171-4.077-3.171-4.53-6.343-4.53H679.458c-3.171,0-4.53,2.265-3.171,4.53l96.046,145.428L664.508,300.092c-1.359,2.265,0,4.53,3.171,4.53h33.978c3.171,0,4.077-.453,7.249-4.53l86.079-129.571,86.079,129.571c3.171,4.077,4.077,4.53,7.249,4.53h33.978c3.171,0,4.531-2.265,3.171-4.53L817.638,137.449,913.683-7.979c1.359-2.265,0-4.53-3.171-4.53H875.628c-3.171,0-3.171.453-6.343,4.53l-74.3,111.9Z" transform="translate(676.695 107.216)" fill="rgba(0,0,0,0.99)"/>
    </g>
  </g>
</svg>
